<mxfile host="app.diagrams.net" modified="2021-08-27T05:47:27.724Z" agent="5.0 (Windows NT 10.0; Win64; x64) AppleWebKit/537.36 (KHTML, like Gecko) Chrome/92.0.4515.159 Safari/537.36" etag="6VeHVv6-IQMc2585Kfpo" version="15.0.2" type="github">
  <diagram id="N8a-HSlBDj5IyzNEin4E" name="Page-1">
    <mxGraphModel dx="1021" dy="2741" grid="1" gridSize="10" guides="1" tooltips="1" connect="1" arrows="1" fold="1" page="1" pageScale="2" pageWidth="850" pageHeight="1100" math="0" shadow="0">
      <root>
        <mxCell id="0" />
        <mxCell id="1" parent="0" />
        <mxCell id="KZ7r-rCqRbQJlGLvO9wz-1" value="" style="ellipse;whiteSpace=wrap;html=1;fillColor=#f8cecc;strokeColor=#b85450;" vertex="1" parent="1">
          <mxGeometry x="690" y="-1500" width="110" height="70" as="geometry" />
        </mxCell>
        <mxCell id="KZ7r-rCqRbQJlGLvO9wz-2" value="" style="ellipse;whiteSpace=wrap;html=1;fillColor=#d5e8d4;strokeColor=#82b366;" vertex="1" parent="1">
          <mxGeometry x="960" y="-1500" width="110" height="70" as="geometry" />
        </mxCell>
        <mxCell id="KZ7r-rCqRbQJlGLvO9wz-3" value="&lt;font style=&quot;font-size: 23px&quot;&gt;note &lt;/font&gt;:&lt;br&gt;&lt;font style=&quot;font-size: 23px&quot;&gt;&lt;font color=&quot;#ff29d4&quot; style=&quot;font-size: 23px&quot;&gt;pink (admin)&lt;/font&gt;, &lt;font color=&quot;#33ff33&quot; style=&quot;font-size: 23px&quot;&gt;hijau (pegawai)&lt;/font&gt;&lt;/font&gt;" style="text;html=1;strokeColor=none;fillColor=none;align=center;verticalAlign=middle;whiteSpace=wrap;rounded=0;" vertex="1" parent="1">
          <mxGeometry x="1120" y="-1500" width="200" height="100" as="geometry" />
        </mxCell>
        <mxCell id="KZ7r-rCqRbQJlGLvO9wz-4" value="&lt;font style=&quot;font-size: 18px&quot;&gt;LOGIN&lt;/font&gt;" style="rounded=0;whiteSpace=wrap;html=1;" vertex="1" parent="1">
          <mxGeometry x="760" y="-1270" width="190" height="100" as="geometry" />
        </mxCell>
        <mxCell id="KZ7r-rCqRbQJlGLvO9wz-5" value="" style="endArrow=classic;html=1;exitX=0.5;exitY=1;exitDx=0;exitDy=0;fillColor=#f8cecc;strokeColor=#b85450;strokeWidth=4;entryX=0.476;entryY=0;entryDx=0;entryDy=0;entryPerimeter=0;" edge="1" parent="1" source="KZ7r-rCqRbQJlGLvO9wz-1" target="KZ7r-rCqRbQJlGLvO9wz-4">
          <mxGeometry width="50" height="50" relative="1" as="geometry">
            <mxPoint x="890" y="-1180" as="sourcePoint" />
            <mxPoint x="860" y="-1260" as="targetPoint" />
          </mxGeometry>
        </mxCell>
        <mxCell id="KZ7r-rCqRbQJlGLvO9wz-6" value="" style="endArrow=classic;html=1;exitX=0.5;exitY=1;exitDx=0;exitDy=0;fillColor=#d5e8d4;strokeColor=#82b366;entryX=0.5;entryY=0;entryDx=0;entryDy=0;strokeWidth=4;" edge="1" parent="1" source="KZ7r-rCqRbQJlGLvO9wz-2" target="KZ7r-rCqRbQJlGLvO9wz-4">
          <mxGeometry width="50" height="50" relative="1" as="geometry">
            <mxPoint x="825" y="-1320" as="sourcePoint" />
            <mxPoint x="870" y="-1250" as="targetPoint" />
          </mxGeometry>
        </mxCell>
        <mxCell id="KZ7r-rCqRbQJlGLvO9wz-7" value="&lt;font style=&quot;font-size: 18px&quot;&gt;QR-CODE GENERATOR(UNTUK PEGAWAI ABSEN)&lt;/font&gt;" style="rounded=0;whiteSpace=wrap;html=1;" vertex="1" parent="1">
          <mxGeometry x="510" y="-1340" width="190" height="100" as="geometry" />
        </mxCell>
        <mxCell id="KZ7r-rCqRbQJlGLvO9wz-8" value="" style="endArrow=classic;html=1;exitX=0;exitY=0.5;exitDx=0;exitDy=0;fillColor=#f8cecc;strokeColor=#b85450;strokeWidth=4;entryX=1;entryY=0.5;entryDx=0;entryDy=0;" edge="1" parent="1" source="KZ7r-rCqRbQJlGLvO9wz-4" target="KZ7r-rCqRbQJlGLvO9wz-7">
          <mxGeometry width="50" height="50" relative="1" as="geometry">
            <mxPoint x="755" y="-1420" as="sourcePoint" />
            <mxPoint x="860.44" y="-1260" as="targetPoint" />
          </mxGeometry>
        </mxCell>
        <mxCell id="KZ7r-rCqRbQJlGLvO9wz-9" value="&lt;span style=&quot;font-size: 18px&quot;&gt;INPUT PRODUK KAFE&lt;/span&gt;" style="rounded=0;whiteSpace=wrap;html=1;" vertex="1" parent="1">
          <mxGeometry x="510" y="-1230" width="190" height="100" as="geometry" />
        </mxCell>
        <mxCell id="KZ7r-rCqRbQJlGLvO9wz-10" value="" style="endArrow=classic;html=1;fillColor=#f8cecc;strokeColor=#b85450;strokeWidth=4;entryX=1;entryY=0.5;entryDx=0;entryDy=0;" edge="1" parent="1" target="KZ7r-rCqRbQJlGLvO9wz-9">
          <mxGeometry width="50" height="50" relative="1" as="geometry">
            <mxPoint x="760" y="-1220" as="sourcePoint" />
            <mxPoint x="710" y="-1280" as="targetPoint" />
          </mxGeometry>
        </mxCell>
        <mxCell id="KZ7r-rCqRbQJlGLvO9wz-11" value="&lt;span style=&quot;font-size: 18px&quot;&gt;CUSTOMER SERVICE(APLIKASI2 MENU BASED)&lt;/span&gt;" style="rounded=0;whiteSpace=wrap;html=1;" vertex="1" parent="1">
          <mxGeometry x="510" y="-1120" width="190" height="100" as="geometry" />
        </mxCell>
        <mxCell id="KZ7r-rCqRbQJlGLvO9wz-12" value="" style="endArrow=classic;html=1;fillColor=#f8cecc;strokeColor=#b85450;strokeWidth=4;entryX=1;entryY=0.5;entryDx=0;entryDy=0;exitX=0;exitY=0.5;exitDx=0;exitDy=0;" edge="1" parent="1" source="KZ7r-rCqRbQJlGLvO9wz-4" target="KZ7r-rCqRbQJlGLvO9wz-11">
          <mxGeometry width="50" height="50" relative="1" as="geometry">
            <mxPoint x="770" y="-1210" as="sourcePoint" />
            <mxPoint x="710" y="-1170" as="targetPoint" />
          </mxGeometry>
        </mxCell>
        <mxCell id="KZ7r-rCqRbQJlGLvO9wz-13" value="&lt;span style=&quot;font-size: 18px&quot;&gt;ABSEN PEGAWAI&lt;/span&gt;" style="rounded=0;whiteSpace=wrap;html=1;" vertex="1" parent="1">
          <mxGeometry x="1010" y="-1310" width="190" height="100" as="geometry" />
        </mxCell>
        <mxCell id="KZ7r-rCqRbQJlGLvO9wz-14" value="" style="endArrow=classic;html=1;exitX=1;exitY=0.5;exitDx=0;exitDy=0;fillColor=#d5e8d4;strokeColor=#82b366;entryX=0;entryY=0.601;entryDx=0;entryDy=0;strokeWidth=4;entryPerimeter=0;" edge="1" parent="1" source="KZ7r-rCqRbQJlGLvO9wz-4" target="KZ7r-rCqRbQJlGLvO9wz-13">
          <mxGeometry width="50" height="50" relative="1" as="geometry">
            <mxPoint x="1025" y="-1420" as="sourcePoint" />
            <mxPoint x="865" y="-1260" as="targetPoint" />
          </mxGeometry>
        </mxCell>
        <mxCell id="KZ7r-rCqRbQJlGLvO9wz-15" value="&lt;font style=&quot;font-size: 18px&quot;&gt;DATABASE&lt;/font&gt;" style="ellipse;shape=cloud;whiteSpace=wrap;html=1;" vertex="1" parent="1">
          <mxGeometry x="30" y="-1300" width="220" height="200" as="geometry" />
        </mxCell>
        <mxCell id="KZ7r-rCqRbQJlGLvO9wz-19" value="&lt;font style=&quot;font-size: 20px&quot;&gt;CLOUD BASE(FIREBASE/AWS AMPLIFY/AZURE DSB) ATAU REST-API(BACKEND SENDIRI) ???&lt;/font&gt;" style="text;html=1;strokeColor=none;fillColor=none;align=center;verticalAlign=middle;whiteSpace=wrap;rounded=0;" vertex="1" parent="1">
          <mxGeometry x="11" y="-1340" width="290" height="20" as="geometry" />
        </mxCell>
        <mxCell id="KZ7r-rCqRbQJlGLvO9wz-20" value="" style="endArrow=classic;html=1;strokeWidth=4;entryX=0.875;entryY=0.5;entryDx=0;entryDy=0;entryPerimeter=0;exitX=0;exitY=0.5;exitDx=0;exitDy=0;" edge="1" parent="1" source="KZ7r-rCqRbQJlGLvO9wz-9" target="KZ7r-rCqRbQJlGLvO9wz-15">
          <mxGeometry width="50" height="50" relative="1" as="geometry">
            <mxPoint x="440" y="-1220" as="sourcePoint" />
            <mxPoint x="490" y="-1270" as="targetPoint" />
          </mxGeometry>
        </mxCell>
        <mxCell id="KZ7r-rCqRbQJlGLvO9wz-21" value="" style="endArrow=classic;html=1;strokeWidth=4;exitX=0.966;exitY=0.601;exitDx=0;exitDy=0;exitPerimeter=0;entryX=0.004;entryY=0.608;entryDx=0;entryDy=0;entryPerimeter=0;" edge="1" parent="1" source="KZ7r-rCqRbQJlGLvO9wz-15" target="KZ7r-rCqRbQJlGLvO9wz-9">
          <mxGeometry width="50" height="50" relative="1" as="geometry">
            <mxPoint x="520" y="-1170" as="sourcePoint" />
            <mxPoint x="390" y="-1070" as="targetPoint" />
          </mxGeometry>
        </mxCell>
        <mxCell id="KZ7r-rCqRbQJlGLvO9wz-22" value="REQUEST" style="text;html=1;strokeColor=none;fillColor=none;align=center;verticalAlign=middle;whiteSpace=wrap;rounded=0;rotation=15;" vertex="1" parent="1">
          <mxGeometry x="321" y="-1213" width="40" height="20" as="geometry" />
        </mxCell>
        <mxCell id="KZ7r-rCqRbQJlGLvO9wz-25" value="RESPONSE" style="text;html=1;strokeColor=none;fillColor=none;align=center;verticalAlign=middle;whiteSpace=wrap;rounded=0;rotation=-180;" vertex="1" parent="1">
          <mxGeometry x="320" y="-1170" width="40" height="20" as="geometry" />
        </mxCell>
        <mxCell id="KZ7r-rCqRbQJlGLvO9wz-28" value="" style="endArrow=classic;html=1;strokeWidth=4;exitX=0;exitY=0.5;exitDx=0;exitDy=0;" edge="1" parent="1" source="KZ7r-rCqRbQJlGLvO9wz-7">
          <mxGeometry width="50" height="50" relative="1" as="geometry">
            <mxPoint x="520" y="-1170" as="sourcePoint" />
            <mxPoint x="210" y="-1260" as="targetPoint" />
          </mxGeometry>
        </mxCell>
        <mxCell id="KZ7r-rCqRbQJlGLvO9wz-29" value="" style="endArrow=classic;html=1;strokeWidth=4;exitX=0.88;exitY=0.25;exitDx=0;exitDy=0;exitPerimeter=0;entryX=-0.002;entryY=0.625;entryDx=0;entryDy=0;entryPerimeter=0;" edge="1" parent="1" source="KZ7r-rCqRbQJlGLvO9wz-15" target="KZ7r-rCqRbQJlGLvO9wz-7">
          <mxGeometry width="50" height="50" relative="1" as="geometry">
            <mxPoint x="252.51999999999998" y="-1169.8" as="sourcePoint" />
            <mxPoint x="520.76" y="-1159.2" as="targetPoint" />
          </mxGeometry>
        </mxCell>
        <mxCell id="KZ7r-rCqRbQJlGLvO9wz-30" value="*REQUEST(KALO PAKE API)" style="text;html=1;strokeColor=none;fillColor=none;align=center;verticalAlign=middle;whiteSpace=wrap;rounded=0;rotation=-5;" vertex="1" parent="1">
          <mxGeometry x="310" y="-1300" width="40" height="20" as="geometry" />
        </mxCell>
        <mxCell id="KZ7r-rCqRbQJlGLvO9wz-31" value="*RESPONSE" style="text;html=1;strokeColor=none;fillColor=none;align=center;verticalAlign=middle;whiteSpace=wrap;rounded=0;rotation=-185;" vertex="1" parent="1">
          <mxGeometry x="320" y="-1250" width="40" height="20" as="geometry" />
        </mxCell>
        <mxCell id="KZ7r-rCqRbQJlGLvO9wz-32" value="" style="endArrow=classic;html=1;strokeWidth=4;entryX=0.8;entryY=0.8;entryDx=0;entryDy=0;entryPerimeter=0;exitX=0;exitY=0.5;exitDx=0;exitDy=0;" edge="1" parent="1" source="KZ7r-rCqRbQJlGLvO9wz-11" target="KZ7r-rCqRbQJlGLvO9wz-15">
          <mxGeometry width="50" height="50" relative="1" as="geometry">
            <mxPoint x="520" y="-1170" as="sourcePoint" />
            <mxPoint x="232.5" y="-1190" as="targetPoint" />
          </mxGeometry>
        </mxCell>
        <mxCell id="KZ7r-rCqRbQJlGLvO9wz-33" value="REQUEST" style="text;html=1;strokeColor=none;fillColor=none;align=center;verticalAlign=middle;whiteSpace=wrap;rounded=0;rotation=15;" vertex="1" parent="1">
          <mxGeometry x="360" y="-1120" width="40" height="20" as="geometry" />
        </mxCell>
        <mxCell id="KZ7r-rCqRbQJlGLvO9wz-34" value="" style="endArrow=classic;html=1;strokeWidth=4;exitX=0.763;exitY=0.854;exitDx=0;exitDy=0;exitPerimeter=0;entryX=-0.021;entryY=0.661;entryDx=0;entryDy=0;entryPerimeter=0;" edge="1" parent="1" source="KZ7r-rCqRbQJlGLvO9wz-15" target="KZ7r-rCqRbQJlGLvO9wz-11">
          <mxGeometry width="50" height="50" relative="1" as="geometry">
            <mxPoint x="252.51999999999998" y="-1169.8" as="sourcePoint" />
            <mxPoint x="520.76" y="-1159.2" as="targetPoint" />
          </mxGeometry>
        </mxCell>
        <mxCell id="KZ7r-rCqRbQJlGLvO9wz-35" value="RESPONSE" style="text;html=1;strokeColor=none;fillColor=none;align=center;verticalAlign=middle;whiteSpace=wrap;rounded=0;rotation=-165;" vertex="1" parent="1">
          <mxGeometry x="350" y="-1080" width="40" height="20" as="geometry" />
        </mxCell>
        <mxCell id="KZ7r-rCqRbQJlGLvO9wz-37" value="&lt;font style=&quot;font-size: 15px&quot;&gt;QR-CODE GENERATOR DI APLIKASI LANGSUNG ATAU REQUEST LEWAT API&lt;/font&gt;" style="text;html=1;strokeColor=none;fillColor=none;align=center;verticalAlign=middle;whiteSpace=wrap;rounded=0;" vertex="1" parent="1">
          <mxGeometry x="515" y="-1390" width="180" height="20" as="geometry" />
        </mxCell>
      </root>
    </mxGraphModel>
  </diagram>
</mxfile>
